<svg width="84" height="84" viewBox="0 0 84 84" fill="none" xmlns="http://www.w3.org/2000/svg">
<rect width="84" height="84" rx="42" fill="white"/>
<path d="M9.564 59.096C9.436 58.488 9.436 57.896 9.564 57.32H12.78C12.94 56.008 13.052 54.648 13.116 53.24C13.212 51.8 13.26 50.36 13.26 48.92V35.48C13.26 34.04 13.212 32.616 13.116 31.208C13.052 29.768 12.94 28.392 12.78 27.08H9.564C9.436 26.472 9.436 25.88 9.564 25.304C10.684 25.336 11.9 25.368 13.212 25.4C14.556 25.4 15.772 25.4 16.86 25.4H33.66V34.52C33.148 34.616 32.636 34.616 32.124 34.52C31.996 32.344 31.388 30.6 30.3 29.288C29.212 27.976 27.42 27.32 24.924 27.32H20.94C20.78 28.76 20.652 30.12 20.556 31.4C20.492 32.68 20.46 34.04 20.46 35.48V48.92C20.46 50.36 20.492 51.72 20.556 53C20.652 54.28 20.78 55.64 20.94 57.08H26.604C28.268 57.08 29.612 56.744 30.636 56.072C31.66 55.4 32.428 54.52 32.94 53.432C33.452 52.344 33.74 51.16 33.804 49.88C34.316 49.784 34.828 49.784 35.34 49.88V59H16.86C15.772 59 14.556 59 13.212 59C11.9 59 10.684 59.032 9.564 59.096ZM28.524 47C28.492 45.496 28.156 44.408 27.516 43.736C26.876 43.032 25.884 42.68 24.54 42.68H16.86V40.76H24.54C25.884 40.76 26.876 40.408 27.516 39.704C28.156 39 28.492 37.912 28.524 36.44C29.036 36.344 29.548 36.344 30.06 36.44V47C29.548 47.096 29.036 47.096 28.524 47ZM47.6828 41.24C47.6828 43.256 47.8428 45.24 48.1628 47.192C48.5148 49.144 49.0588 50.92 49.7948 52.52C50.5308 54.088 51.5068 55.352 52.7228 56.312C53.9708 57.24 55.4908 57.704 57.2828 57.704L56.8028 59.72C53.2188 59.72 50.1308 58.984 47.5388 57.512C44.9468 56.04 42.9628 53.992 41.5868 51.368C40.2108 48.744 39.5228 45.688 39.5228 42.2C39.5228 38.712 40.2268 35.656 41.6348 33.032C43.0428 30.408 45.0428 28.36 47.6348 26.888C50.2268 25.416 53.2828 24.68 56.8028 24.68L56.3228 26.696C54.1788 26.696 52.4668 27.352 51.1868 28.664C49.9388 29.944 49.0428 31.688 48.4988 33.896C47.9548 36.104 47.6828 38.552 47.6828 41.24ZM65.9228 43.16C65.9228 41.144 65.7468 39.16 65.3948 37.208C65.0748 35.256 64.5468 33.496 63.8108 31.928C63.0748 30.328 62.0828 29.064 60.8348 28.136C59.6188 27.176 58.1148 26.696 56.3228 26.696L56.8028 24.68C60.4188 24.68 63.5068 25.416 66.0668 26.888C68.6588 28.36 70.6428 30.408 72.0188 33.032C73.3948 35.656 74.0828 38.712 74.0828 42.2C74.0828 45.688 73.3788 48.744 71.9708 51.368C70.5628 53.992 68.5628 56.04 65.9708 57.512C63.3788 58.984 60.3228 59.72 56.8028 59.72L57.2828 57.704C59.4588 57.704 61.1708 57.048 62.4188 55.736C63.6668 54.424 64.5628 52.68 65.1068 50.504C65.6508 48.296 65.9228 45.848 65.9228 43.16Z" fill="#BD0000"/>
</svg>
